<?xml version="1.0" encoding="UTF-8"?>
<svg version="1.1" xmlns="http://www.w3.org/2000/svg" width="1024" height="1024">
<path d="M0 0 C337.92 0 675.84 0 1024 0 C1024 337.92 1024 675.84 1024 1024 C686.08 1024 348.16 1024 0 1024 C0 686.08 0 348.16 0 0 Z " fill="#FEFEFE" transform="translate(0,0)"/>
<path d="M0 0 C7.86930137 5.03514685 13.07236134 11.95629856 18.58496094 19.36816406 C21.27182181 22.94643479 24.03564106 26.4650554 26.7890625 29.9921875 C27.99236071 31.53762557 29.1954839 33.08319992 30.3984375 34.62890625 C31.00107422 35.40282715 31.60371094 36.17674805 32.22460938 36.97412109 C35.74693632 41.49835859 39.26637402 46.02484412 42.78588867 50.55126953 C45.71323863 54.31576396 48.64213267 58.07903668 51.57421875 61.83984375 C57.30728805 69.19678076 63.01479891 76.57065569 68.6640625 83.9921875 C73.27046943 90.0409695 77.96820655 96.00652294 82.73535156 101.92919922 C86.25493533 106.30718972 89.70506154 110.73049101 93.11889648 115.19165039 C96.65305426 119.80949599 100.21696883 124.40363244 103.7890625 128.9921875 C104.38187012 129.75378174 104.97467773 130.51537598 105.58544922 131.30004883 C106.79840931 132.85814555 108.01146336 134.41616913 109.22460938 135.97412109 C112.16419588 139.74986016 115.10153965 143.52734285 118.0390625 147.3046875 C119.20571789 148.80469627 120.37238457 150.30469626 121.5390625 151.8046875 C123.87239583 154.8046875 126.20572917 157.8046875 128.5390625 160.8046875 C129.4067627 161.92012939 129.4067627 161.92012939 130.29199219 163.05810547 C131.44934474 164.54636123 132.60625167 166.03496364 133.76269531 167.52392578 C136.81815489 171.456687 139.88291516 175.38173997 142.9609375 179.296875 C143.60160156 180.11414063 144.24226562 180.93140625 144.90234375 181.7734375 C146.13127607 183.34077147 147.36291464 184.90598848 148.59765625 186.46875 C149.15066406 187.17515625 149.70367188 187.8815625 150.2734375 188.609375 C150.76038086 189.22796387 151.24732422 189.84655273 151.74902344 190.48388672 C154.48955375 194.35195543 155.54853834 197.42404109 155.421875 202.2734375 C154.71403981 206.0292977 152.81338743 207.71531757 150.0390625 210.3046875 C145.88028229 212.46041128 142.27800978 212.56079896 137.63427734 212.57592773 C136.9068483 212.58115448 136.17941925 212.58638123 135.4299469 212.59176636 C133.8574577 212.60197403 132.28493501 212.6077811 130.71241379 212.60964775 C128.22426387 212.61331923 125.73650971 212.63006458 123.2484436 212.65040588 C116.17709697 212.7057602 109.10569376 212.7365669 102.03417969 212.76098633 C97.70352646 212.77684058 93.37315804 212.80702947 89.04265213 212.84575081 C87.39283896 212.85741217 85.74297495 212.86333126 84.09312057 212.86343193 C81.7901293 212.86362351 79.48792752 212.8818517 77.18505859 212.90405273 C75.87443451 212.90912338 74.56381042 212.91419403 73.21347046 212.91941833 C70.17043167 213.06747767 70.17043167 213.06747767 68.36401123 214.3215251 C66.26896706 217.45735423 66.63114625 220.77519773 66.66547489 224.42055511 C66.66152337 225.26153118 66.65757185 226.10250725 66.65350059 226.96896744 C66.64382737 229.81195654 66.65567838 232.6544601 66.66725159 235.49743652 C66.66467904 237.54633868 66.66077998 239.59523953 66.655662 241.64413691 C66.64534533 247.29416003 66.65372011 252.944028 66.66495883 258.59404373 C66.67378285 264.68015556 66.66531793 270.76624475 66.65875244 276.85235596 C66.64957946 287.4059939 66.65089348 297.95959387 66.65893745 308.51322937 C66.67035588 323.78413706 66.6612113 339.05498429 66.64637565 354.32588655 C66.63948181 361.4385019 66.63354009 368.55111807 66.62779903 375.66373444 C66.62693392 376.73189652 66.62693392 376.73189652 66.62605134 377.82163763 C66.61251779 394.77952758 66.60793975 411.7374178 66.60522461 428.6953125 C66.60510146 429.43745715 66.60497831 430.17960181 66.60485143 430.94423569 C66.60213757 447.50106296 66.60122146 464.0578898 66.60227509 480.61471726 C66.60269986 487.36684275 66.60300739 494.11896825 66.60327148 500.87109375 C66.60332065 501.9818911 66.60332065 501.9818911 66.60337081 503.11512881 C66.60405671 520.02718989 66.60144137 536.93923974 66.5871191 553.85129547 C66.58651743 554.56247973 66.58591576 555.27366398 66.58529586 556.00639928 C66.57919749 563.1074259 66.5724302 570.20845159 66.56471033 577.30947663 C66.54824178 592.55974234 66.54220721 607.80990693 66.55754968 623.0601759 C66.56854032 634.18256193 66.56532915 645.3048853 66.54835863 656.42726797 C66.53965746 662.45185816 66.5375405 668.47626591 66.55288506 674.50084686 C66.56682534 680.01814629 66.56235286 685.53511555 66.54336404 691.05239707 C66.53975619 693.046433 66.54288917 695.04049514 66.55351371 697.03450602 C66.61066011 708.53650515 66.21082611 717.92387495 60.4140625 728.1796875 C52.56592597 735.20170439 44.42747278 736.03695548 34.24267578 735.9675293 C32.881364 735.97596022 31.52006388 735.98649314 30.15878296 735.99894714 C26.48905493 736.02582867 22.82001141 736.02133884 19.15022898 736.00924659 C16.07397758 736.00207537 12.99784962 736.01064168 9.92160785 736.01915199 C2.65742196 736.03905293 -4.60643444 736.0335946 -11.87060547 736.01147461 C-19.33603642 735.98912639 -26.80060187 736.00670149 -34.26595104 736.04452389 C-40.70202226 736.07587211 -47.13782719 736.08363925 -53.57396519 736.07257015 C-57.40629597 736.06611831 -61.23812823 736.0679141 -65.07040024 736.09189415 C-68.67748693 736.11331906 -72.28336459 736.10494877 -75.89037704 736.07480049 C-77.82505765 736.06557057 -79.75981077 736.08552623 -81.69439697 736.10675049 C-91.56322605 735.97733965 -99.25446131 733.19754413 -106.8984375 726.875 C-107.5790625 726.06804688 -108.2596875 725.26109375 -108.9609375 724.4296875 C-110.1675 723.0065625 -110.1675 723.0065625 -111.3984375 721.5546875 C-115.91808714 715.89100154 -120.2331172 710.07360012 -124.52783203 704.23876953 C-126.61623527 701.4203146 -128.75441937 698.64363886 -130.8984375 695.8671875 C-134.76642801 690.85680493 -138.61835387 685.83458317 -142.4609375 680.8046875 C-146.28639706 675.79857849 -150.11709183 670.79669487 -153.9609375 665.8046875 C-158.37090051 660.07746282 -162.7623654 654.33625809 -167.15112305 648.59277344 C-170.35043045 644.40707937 -173.55734652 640.22749798 -176.7734375 636.0546875 C-181.82611572 629.49276773 -186.84282595 622.9036442 -191.85986328 616.31445312 C-197.69088489 608.65669784 -203.53489139 601.00896638 -209.38427734 593.36523438 C-212.0773196 589.84568085 -214.7690513 586.32512524 -217.4609375 582.8046875 C-218.54426479 581.38801622 -219.62759812 579.97134954 -220.7109375 578.5546875 C-227.2109375 570.0546875 -233.7109375 561.5546875 -240.2109375 553.0546875 C-241.01494995 552.0032959 -241.01494995 552.0032959 -241.83520508 550.93066406 C-242.92100397 549.51076066 -244.00677862 548.09083872 -245.0925293 546.67089844 C-247.76294335 543.17860317 -250.43374645 539.68660704 -253.10546875 536.1953125 C-259.06612528 528.40514753 -265.0177418 520.60818341 -270.9609375 512.8046875 C-282.01522607 498.29090157 -293.09710908 483.79877719 -304.23828125 469.3515625 C-310.13675332 461.69630757 -315.99791476 454.01305367 -321.85253906 446.32421875 C-329.8030493 435.8833226 -337.76359258 425.45016011 -345.7734375 415.0546875 C-350.82611572 408.49276773 -355.84282595 401.9036442 -360.85986328 395.31445312 C-365.11708307 389.72353792 -369.37881089 384.13613383 -373.6484375 378.5546875 C-374.16994385 377.872854 -374.6914502 377.19102051 -375.22875977 376.48852539 C-377.93105019 372.95611687 -380.63486872 369.42488438 -383.33984375 365.89453125 C-384.46358402 364.42711577 -385.58728244 362.95966823 -386.7109375 361.4921875 C-387.24904053 360.79005127 -387.78714355 360.08791504 -388.34155273 359.36450195 C-390.82855682 356.11438331 -393.30301243 352.85652099 -395.7421875 349.5703125 C-396.16274414 349.00417236 -396.58330078 348.43803223 -397.01660156 347.85473633 C-398.13144026 346.34952177 -399.24168016 344.84090414 -400.3515625 343.33203125 C-400.88265625 342.66300781 -401.41375 341.99398438 -401.9609375 341.3046875 C-402.2909375 341.3046875 -402.6209375 341.3046875 -402.9609375 341.3046875 C-402.96240271 342.49353774 -402.96240271 342.49353774 -402.96389753 343.70640516 C-403.02215681 390.66987082 -403.09594393 437.63329004 -403.18992378 484.59669849 C-403.20119208 490.23438732 -403.21233051 495.87207639 -403.22338867 501.50976562 C-403.22559236 502.6321383 -403.22779604 503.75451097 -403.2300665 504.91089493 C-403.26544859 523.08935559 -403.29030758 541.2678162 -403.31128452 559.44629854 C-403.3330393 578.09608941 -403.36608667 596.74583556 -403.40963906 615.3955884 C-403.4361613 626.90548167 -403.45385247 638.41531921 -403.46028354 649.92524153 C-403.46553565 657.81570293 -403.48174674 665.70609417 -403.50660316 673.59651798 C-403.52062413 678.15034248 -403.52978671 682.70404136 -403.52594566 687.25788879 C-403.5225349 691.42803479 -403.53290338 695.59791248 -403.55417302 699.76800352 C-403.55944034 701.2755291 -403.55967639 702.78308256 -403.55433313 704.29060787 C-403.52598754 713.1959494 -403.95642198 720.1369208 -408.5234375 727.9921875 C-415.8130276 734.90795246 -423.74559382 736.03700656 -433.44384766 735.93579102 C-434.6516539 735.94294632 -435.85946014 735.95010162 -437.10386658 735.95747375 C-440.38712995 735.97139633 -443.66935617 735.96314618 -446.9525609 735.94338346 C-450.40412219 735.92688003 -453.85563618 735.93582563 -457.30722046 735.94090271 C-463.09882594 735.94540953 -468.89010694 735.92963921 -474.68164062 735.90161133 C-481.36085263 735.86953518 -488.03948077 735.86959131 -494.71873438 735.8868261 C-501.1687481 735.90273055 -507.61854941 735.89593455 -514.06855392 735.87888908 C-516.80284718 735.87204793 -519.53696865 735.87302044 -522.27125931 735.88043404 C-526.09347735 735.88589593 -529.91471063 735.8654781 -533.73681641 735.83813477 C-534.86118607 735.84466064 -535.98555573 735.85118652 -537.14399719 735.85791016 C-544.73054038 735.76582463 -549.87368077 734.53273702 -555.94921875 729.734375 C-562.30795201 722.26895955 -563.4129773 713.63364154 -563.34125423 704.10653687 C-563.34591415 703.12549114 -563.35057407 702.14444542 -563.3553752 701.13367105 C-563.36729685 697.85639156 -563.3579405 694.57952882 -563.34861755 691.30224609 C-563.35279168 688.9248549 -563.35826963 686.54746569 -563.36493737 684.17008018 C-563.37638193 679.00635364 -563.37852516 673.84270995 -563.37238693 668.67897797 C-563.36328352 661.00023943 -563.37133774 653.32158472 -563.38267817 645.6428526 C-563.40233456 631.92739257 -563.40469453 618.21197035 -563.39948297 604.4964996 C-563.39492451 592.49381604 -563.39552659 580.49114744 -563.40132332 568.48846436 C-563.40208019 566.8779937 -563.40283617 565.26752305 -563.40359126 563.6570524 C-563.40473646 561.23018543 -563.40588634 558.80331847 -563.40705051 556.37645151 C-563.41775385 533.81705743 -563.42248236 511.25766832 -563.41458035 488.69827271 C-563.41428317 487.84805754 -563.413986 486.99784237 -563.41367982 486.12186311 C-563.41123092 479.21764674 -563.40861932 472.31343042 -563.40599569 465.40921411 C-563.39589162 438.47395761 -563.40425236 411.53876344 -563.42749023 384.60351562 C-563.45356051 354.33628555 -563.46641156 324.06909299 -563.45930248 293.80185127 C-563.45858643 290.57487107 -563.45791204 287.34789086 -563.45726204 284.12091064 C-563.45709223 283.3263552 -563.45692242 282.53179976 -563.45674747 281.71316688 C-563.45444437 269.7184927 -563.46242189 257.72385337 -563.47555351 245.72918701 C-563.49045931 232.08968671 -563.49131509 218.45026809 -563.4734826 204.81076956 C-563.46391512 197.17870018 -563.46536356 189.54682127 -563.48271729 181.91476458 C-563.4944344 176.21605918 -563.48523905 170.51754045 -563.46789492 164.81885648 C-563.46411886 162.51347541 -563.46710283 160.20807136 -563.47750657 157.90271068 C-563.49064336 154.76906959 -563.47912177 151.63643583 -563.46150875 148.50283813 C-563.47115926 147.60786377 -563.48080977 146.71288941 -563.49075273 145.79079461 C-563.40333795 138.21593292 -561.15857093 131.96740988 -557.2734375 125.4921875 C-551.17581265 119.72416399 -544.48176707 117.19214876 -536.20103455 117.15751648 C-535.02503693 117.15036118 -533.84903931 117.14320587 -532.6374054 117.13583374 C-531.35061386 117.13314484 -530.06382233 117.13045593 -528.73803711 117.12768555 C-527.36614816 117.12141736 -525.99426091 117.11477024 -524.62237549 117.10777283 C-520.11935602 117.08676518 -515.61633636 117.07637076 -511.11328125 117.06640625 C-509.55955043 117.0623569 -508.00581978 117.05823992 -506.45208931 117.05405617 C-499.14837342 117.03500855 -491.84466759 117.02077889 -484.54093164 117.0124442 C-476.12927736 117.00268522 -467.71788716 116.97639912 -459.30632585 116.93594331 C-452.79317382 116.90570094 -446.28009712 116.8909675 -439.76687628 116.88766319 C-435.88257558 116.88532116 -431.99855713 116.87647272 -428.1143322 116.85120201 C-424.45426903 116.82777466 -420.79467096 116.82374613 -417.134552 116.83396339 C-415.16738373 116.83468814 -413.20023831 116.81569871 -411.23316956 116.79589844 C-402.91117859 116.84422546 -394.35938278 117.49649313 -387.80787563 123.16881847 C-385.66821164 125.43010508 -383.82675899 127.81127151 -381.9609375 130.3046875 C-381.03664235 131.52227513 -380.11214903 132.73971234 -379.1875 133.95703125 C-377.12000827 136.69414092 -375.06979875 139.4433887 -373.02734375 142.19921875 C-370.27161703 145.90662547 -367.45058259 149.55602486 -364.5859375 153.1796875 C-363.9209021 154.02152588 -363.9209021 154.02152588 -363.24243164 154.88037109 C-362.31271244 156.05716816 -361.3829422 157.2339249 -360.453125 158.41064453 C-352.49824172 168.50782786 -344.65032478 178.68806022 -336.85595703 188.90942383 C-332.92068196 194.06457463 -328.94873942 199.19008946 -324.9609375 204.3046875 C-319.88777574 210.81132543 -314.85826589 217.34931037 -309.85546875 223.91015625 C-305.92026243 229.06499068 -301.94855944 234.19032028 -297.9609375 239.3046875 C-292.89066131 245.80762451 -287.86339717 252.34143039 -282.86425781 258.89916992 C-278.84573713 264.16416488 -274.78513919 269.39519996 -270.7109375 274.6171875 C-266.19220885 280.41017802 -261.74034648 286.24436989 -257.3515625 292.13671875 C-253.75247692 296.90609523 -250.06984836 301.60958347 -246.39453125 306.3203125 C-241.84577893 312.15479353 -237.34349171 318.0230645 -232.85864258 323.90673828 C-228.90525044 329.08654987 -224.90865631 334.23129323 -220.8984375 339.3671875 C-216.52600452 344.96966756 -212.20807586 350.60665016 -207.9609375 356.3046875 C-202.00165016 364.29706171 -195.88591577 372.16278004 -189.74755859 380.01806641 C-181.73280917 390.27580665 -173.7492758 400.55555187 -165.85742188 410.90820312 C-161.90457433 416.08763124 -157.90830716 421.23182721 -153.8984375 426.3671875 C-149.46147607 432.05148994 -145.08325279 437.77339919 -140.7734375 443.5546875 C-136.23172242 449.64530688 -131.58974613 455.64507145 -126.87890625 461.60546875 C-123.53058968 465.84265747 -120.21361617 470.10404982 -116.8984375 474.3671875 C-116.30643555 475.12773438 -115.71443359 475.88828125 -115.10449219 476.671875 C-112.38452416 480.17005193 -109.67299006 483.67388949 -106.98828125 487.19921875 C-106.53654541 487.7914624 -106.08480957 488.38370605 -105.61938477 488.99389648 C-104.42584992 490.56158872 -103.23620251 492.13223849 -102.046875 493.703125 C-100.13103466 496.09254385 -98.2597757 498.28055324 -95.9609375 500.3046875 C-93.767403 500.3193114 -93.767403 500.3193114 -91.9609375 499.3046875 C-90.75607683 496.89496615 -90.83239701 495.38906799 -90.82671642 492.69690132 C-90.82002966 491.23160223 -90.82002966 491.23160223 -90.81320781 489.73670113 C-90.81339217 488.65578977 -90.81357653 487.57487841 -90.81376648 486.46121216 C-90.80825145 484.74779029 -90.80825145 484.74779029 -90.802625 482.99975383 C-90.79348717 479.81954785 -90.78888608 476.63937219 -90.78623569 473.45915532 C-90.78233667 470.03303424 -90.77275815 466.60692817 -90.76402283 463.18081665 C-90.74424841 454.90273625 -90.73419158 446.6246546 -90.72529504 438.34655648 C-90.72091428 434.45094524 -90.71554697 430.55533536 -90.71030617 426.65972519 C-90.69329394 413.71491083 -90.67879842 400.77009733 -90.67155743 387.82527351 C-90.66964745 384.46505863 -90.66772713 381.10484376 -90.66577148 377.74462891 C-90.66528774 376.90943701 -90.664804 376.07424512 -90.6643056 375.21374439 C-90.65600027 361.67562515 -90.63065487 348.13759412 -90.59819081 334.59951343 C-90.56515308 320.70931658 -90.5471117 306.81916462 -90.54391319 292.92892826 C-90.54174518 285.12634174 -90.53295407 277.32388391 -90.50745201 269.5213356 C-90.48578993 262.87822255 -90.47767236 256.23526944 -90.48741879 249.59212507 C-90.49197648 246.2011944 -90.48999296 242.81059403 -90.47065735 239.41970825 C-90.45309331 235.74689937 -90.45996877 232.07493797 -90.47319031 228.40213013 C-90.46222106 227.32568021 -90.45125182 226.24923029 -90.43995017 225.14016068 C-90.40828378 219.54547631 -90.40828378 219.54547631 -92.78634644 214.64185143 C-95.9685485 212.68510384 -98.47067184 212.81318049 -102.1887207 212.82226562 C-102.90957855 212.81835312 -103.6304364 212.81444061 -104.37313843 212.81040955 C-105.93528178 212.80444103 -107.49748079 212.80759299 -109.05959511 212.8188324 C-111.5363877 212.83610958 -114.01201448 212.82857825 -116.48881531 212.8145752 C-122.64136926 212.78493647 -128.79370038 212.79809227 -134.94628906 212.80975342 C-140.14401999 212.81797391 -145.34124163 212.8099438 -150.53890038 212.78062439 C-152.97143538 212.77355458 -155.40306217 212.79017926 -157.83552551 212.80773926 C-159.33867879 212.80202777 -160.8418284 212.79520872 -162.3449707 212.78710938 C-163.64972855 212.79029175 -164.95448639 212.79347412 -166.29878235 212.79675293 C-170.87088405 212.18242254 -173.16782554 210.90330913 -176.9609375 208.3046875 C-179.86561662 203.94766882 -179.96465639 200.40931499 -178.9609375 195.3046875 C-177.16032051 191.87700697 -174.83208799 188.99284276 -172.36523438 186.01855469 C-170.15113321 183.31636585 -168.03318574 180.54077753 -165.89892578 177.77539062 C-164.07601462 175.41684896 -162.24267073 173.06678354 -160.40625 170.71875 C-157.57353668 167.09392896 -154.76092665 163.45483838 -151.9609375 159.8046875 C-147.98194751 154.62152949 -143.97555832 149.46028888 -139.9609375 144.3046875 C-134.26716544 136.99187316 -128.60361696 129.65698672 -122.9609375 122.3046875 C-120.87514645 119.59167164 -118.78807272 116.87964268 -116.70117188 114.16748047 C-114.66652382 111.52291264 -112.63305494 108.87746303 -110.6015625 106.23046875 C-105.1428857 99.12170174 -99.64878269 92.04125128 -94.14257812 84.96923828 C-89.05632231 78.43392649 -84.00287817 71.87423603 -78.9609375 65.3046875 C-76.87514645 62.59167164 -74.78807272 59.87964268 -72.70117188 57.16748047 C-70.66652382 54.52291264 -68.63305494 51.87746303 -66.6015625 49.23046875 C-61.21814339 42.2197089 -55.8035896 35.2340416 -50.36230469 28.26806641 C-47.33620262 24.3871193 -44.33732221 20.48951642 -41.38671875 16.55078125 C-40.81091064 15.78540039 -40.23510254 15.02001953 -39.6418457 14.23144531 C-38.55492339 12.78347851 -37.47362536 11.33126517 -36.39916992 9.87402344 C-27.51632272 -1.93509114 -14.06227633 -7.41465479 0 0 Z " fill="#00AFBF" transform="translate(725.9609375,81.6953125)"/>
<path d="M0 0 C0 3.80345877 -1.13786331 4.77701015 -3.5 7.6875 C-4.1496875 8.49574219 -4.799375 9.30398437 -5.46875 10.13671875 C-5.9740625 10.75160156 -6.479375 11.36648437 -7 12 C-7.66 11.67 -8.32 11.34 -9 11 C-7.68823998 9.35357683 -6.3755713 7.70787757 -5.0625 6.0625 C-4.33160156 5.14597656 -3.60070312 4.22945312 -2.84765625 3.28515625 C-1 1 -1 1 0 0 Z " fill="#07A2B7" transform="translate(588,224)"/>
<path d="M0 0 C-1.49097658 3.7952131 -3.75700849 5.61042731 -7 8 C-4.18918919 0 -4.18918919 0 0 0 Z " fill="#04A5B9" transform="translate(637,163)"/>
</svg>
